<?xml version="1.0" encoding="UTF-8" standalone="no"?>
<svg xmlns="http://www.w3.org/2000/svg" version="1.2" baseProfile="tiny" viewBox="0.00 0.00 1773.00 1773.00">
<path fill="none" stroke-width="1.00" stroke="#000000" vector-effect="non-scaling-stroke" d="
  M 522.01 630.55
  L 521.90 631.85
  L 521.37 632.69
  L 520.47 633.38
  L 520.09 633.75
  L 519.94 634.27
  L 520.07 634.79
  L 520.44 635.18
  L 520.96 635.33
  L 521.25 635.35
  L 521.80 635.52
  L 522.25 635.88
  L 525.19 639.02
  L 527.66 641.07
  L 529.90 642.69
  L 531.06 643.78
  L 532.15 644.95
  L 533.92 646.35
  L 535.55 647.62
  L 563.28 671.78
  L 571.90 679.21
  L 581.89 687.51
  L 600.55 703.14
  L 600.93 703.30
  L 601.23 703.36
  L 601.56 703.50
  L 605.76 707.71
  L 606.70 708.23
  L 607.03 708.31
  L 607.80 708.75
  L 612.63 713.59
  L 613.33 714.06
  L 614.15 714.22
  L 614.97 714.06
  L 615.67 713.59
  L 618.99 710.25
  L 619.83 708.78
  L 620.74 705.99
  L 621.37 705.12
  L 624.48 702.73
  L 627.33 699.83
  L 658.53 663.78
  L 659.79 662.50
  L 661.15 661.45
  L 661.82 661.20
  L 694.76 656.99
  L 722.50 653.72
  L 729.90 653.14
  L 737.16 653.07
  L 737.63 653.28
  L 737.80 653.76
  L 737.80 653.76
  L 737.80 653.79
  L 737.85 655.19
  L 738.33 656.23
  L 738.39 656.31
  L 738.79 656.96
  L 745.11 672.38
  L 747.06 676.66
  L 748.66 679.50
  L 749.12 679.99
  L 749.71 680.30
  L 754.31 681.84
  L 768.36 686.36
  L 773.63 687.81
  L 778.51 688.96
  L 779.34 689.01
  L 780.16 688.82
  L 812.47 676.40
  L 812.76 676.24
  L 812.96 676.02
  L 813.52 675.75
  L 814.85 675.67
  L 815.72 675.17
  L 815.85 675.00
  L 816.39 674.71
  L 818.07 674.71
  L 818.56 674.38
  L 818.84 673.98
  L 819.76 673.80
  L 819.85 673.81
  L 820.76 673.63
  L 823.60 672.26
  L 826.04 670.81
  L 830.67 661.27
  L 831.16 660.58
  L 831.37 660.04
  L 831.36 659.90
  L 831.40 659.44
  L 831.69 659.08
  L 832.32 658.36
  L 832.32 658.36
  L 832.40 657.80
  L 832.25 657.16
  L 832.24 656.64
  L 832.59 656.24
  L 833.06 655.90
  L 833.31 655.49
  L 833.31 655.49
  L 833.31 654.84
  L 833.36 654.44
  L 833.65 654.17
  L 834.18 653.76
  L 834.29 652.93
  L 834.35 652.50
  L 834.65 652.20
  L 835.22 651.64
  L 835.26 650.98
  L 835.32 650.53
  L 835.65 650.21
  L 836.11 649.83
  L 836.26 648.99
  L 836.34 648.56
  L 836.64 648.24
  L 837.13 647.76
  L 837.24 646.96
  L 837.31 646.56
  L 837.61 646.28
  L 838.05 645.92
  L 838.17 645.33
  L 838.20 645.21
  L 841.52 638.55
  L 841.98 638.27
  L 851.07 638.31
  L 851.60 638.20
  L 852.04 637.88
  L 852.14 637.74
  L 852.50 637.40
  L 852.98 637.28
  L 861.93 637.30
  L 869.01 637.10
  L 871.00 636.77
  L 873.35 636.40
  L 884.55 636.26
  L 885.31 636.10
  L 885.96 635.66
  L 886.38 635.00
  L 886.51 634.24
  L 886.51 634.24
  L 886.51 634.21
  L 886.49 633.11
  L 886.68 629.70
  L 887.24 626.29
  L 887.43 624.66
  L 887.55 592.47
  L 887.35 579.93
  L 886.98 569.65
  L 884.63 529.00
  L 884.62 526.73
  L 884.89 524.61
  L 885.43 522.65
  L 886.26 520.84
  L 886.26 520.84
  L 887.62 518.87
  L 889.39 517.13
  L 918.94 492.74
  L 920.32 491.58
  L 922.85 489.18
  L 926.49 486.12
  L 928.78 484.22
  L 944.59 470.84
  L 947.96 467.89
  L 950.32 465.77
  L 952.33 464.40
  L 953.34 463.66
  L 954.56 462.40
  L 956.06 460.90
  L 957.37 460.06
  L 958.92 459.04
  L 960.91 457.09
  L 963.00 455.03
  L 964.72 453.85
  L 966.14 452.70
  L 968.95 449.98
  L 970.50 448.66
  L 974.61 445.36
  L 975.93 443.99
  L 976.75 442.81
  L 982.33 431.75
  L 983.13 430.81
  L 983.81 429.91
  L 992.27 413.02
  L 993.23 411.91
  L 993.60 411.40
  L 997.60 403.44
  L 997.62 403.41
  L 997.89 402.46
  L 997.98 402.18
  L 998.43 401.80
  L 998.75 401.54
  L 998.82 400.99
  L 998.90 400.27
  L 999.26 399.94
  L 999.68 399.53
  L 999.82 398.96
  L 999.81 398.80
  L 999.95 398.26
  L 1000.34 397.87
  L 1000.79 397.38
  L 1000.80 396.80
  L 1000.84 396.35
  L 1001.15 396.04
  L 1001.76 395.47
  L 1001.78 394.94
  L 1001.97 394.28
  L 1003.64 392.60
  L 1003.77 392.06
  L 1003.74 391.58
  L 1004.38 390.93
  L 1004.73 390.57
  L 1004.74 390.06
  L 1004.71 389.90
  L 1004.88 389.38
  L 1005.48 388.83
  L 1005.77 388.41
  L 1005.73 387.90
  L 1005.69 387.68
  L 1005.99 387.33
  L 1006.43 386.66
  L 1015.20 370.29
  L 1016.09 369.41
  L 1017.32 369.15
  L 1087.75 374.62
  L 1088.08 374.71
  L 1088.47 375.06
  L 1089.54 377.31
  L 1090.37 380.18
  L 1097.35 413.43
  L 1103.72 443.83
  L 1105.41 452.45
  L 1106.85 459.84
  L 1108.18 465.09
  L 1109.62 468.68
  L 1110.58 470.28
  L 1111.69 471.74
  L 1111.69 471.74
  L 1113.36 473.43
  L 1156.50 510.80
  L 1157.31 511.70
  L 1158.01 512.91
  L 1159.21 516.34
  L 1160.13 521.21
  L 1160.73 527.27
  L 1161.05 531.64
  L 1161.49 536.88
  L 1161.92 541.94
  L 1162.24 546.24
  L 1162.75 549.40
  L 1163.88 553.64
  L 1164.59 555.49
  L 1165.55 557.09
  L 1167.55 559.16
  L 1170.46 560.99
  L 1183.78 567.76
  L 1191.17 571.26
  L 1199.16 574.56
  L 1208.18 577.87
  L 1219.51 581.63
  L 1223.93 582.95
  L 1227.99 583.95
  L 1231.71 584.64
  L 1235.08 585.02
  L 1241.64 585.27
  L 1248.14 585.09
  L 1254.89 584.51
  L 1262.21 583.48
  L 1270.97 581.90
  L 1285.22 579.29
  L 1297.82 577.32
  L 1299.37 577.33
  L 1300.51 577.84
  L 1300.51 577.84
  L 1301.13 578.59
  L 1301.49 579.64
  L 1302.86 586.44
  L 1311.75 636.27
  L 1319.90 680.58
  L 1320.40 681.67
  L 1321.37 682.38
  L 1336.90 688.37
  L 1352.97 693.76
  L 1360.99 696.37
  L 1367.90 698.85
  L 1373.71 701.21
  L 1378.40 703.45
  L 1379.27 703.95
  L 1379.93 704.27
  L 1380.68 704.27
  L 1380.75 704.28
  L 1393.83 710.15
  L 1394.42 710.04
  L 1396.02 708.44
  L 1396.27 708.31
  L 1397.81 707.68
  L 1400.50 706.01
  L 1408.32 701.09
  L 1414.13 698.10
  L 1422.80 694.96
  L 1431.59 691.85
  L 1446.06 686.37
  L 1459.56 681.56
  L 1461.37 681.03
  L 1463.42 680.66
  L 1465.52 680.50
  L 1465.98 680.62
  L 1466.31 680.95
  L 1467.62 683.89
  L 1485.00 740.40
  L 1489.66 754.77
  L 1493.49 766.53
  L 1494.02 769.42
  L 1493.97 770.73
  L 1493.70 771.94
  L 1485.34 796.11
  L 1481.79 805.37
  L 1477.91 813.92
  L 1475.61 818.05
  L 1472.80 822.15
  L 1469.41 826.37
  L 1464.37 832.03
  L 1462.31 834.31
  L 1454.78 842.50
  L 1444.20 853.64
  L 1432.60 865.93
  L 1430.55 868.17
  L 1415.01 884.71
  L 1400.34 900.26
  L 1399.80 900.84
  L 1397.10 904.28
  L 1395.86 905.97
  L 1395.39 906.85
  L 1394.04 911.27
  L 1393.22 915.25
  L 1391.31 929.72
  L 1389.55 945.79
  L 1389.38 946.20
  L 1389.02 946.46
  L 1385.65 947.51
  L 1382.53 948.28
  L 1370.84 950.67
  L 1355.98 953.80
  L 1347.22 956.19
  L 1343.70 957.04
  L 1340.20 957.26
  L 1336.33 956.78
  L 1332.48 955.53
  L 1324.58 951.97
  L 1318.44 948.77
  L 1317.58 948.57
  L 1317.56 948.58
  L 1317.27 948.49
  L 1317.00 948.25
  L 1316.67 947.73
  L 1316.29 947.50
  L 1315.80 947.58
  L 1315.79 947.58
  L 1315.38 947.60
  L 1315.09 947.32
  L 1314.75 946.78
  L 1314.35 946.53
  L 1313.84 946.61
  L 1313.42 946.62
  L 1313.13 946.34
  L 1313.12 946.32
  L 1312.55 945.61
  L 1311.81 945.64
  L 1311.38 945.61
  L 1311.10 945.28
  L 1311.10 945.28
  L 1310.67 944.69
  L 1309.81 944.64
  L 1309.40 944.60
  L 1309.12 944.28
  L 1308.69 943.72
  L 1307.84 943.65
  L 1307.42 943.60
  L 1307.14 943.29
  L 1306.50 942.60
  L 1305.42 941.90
  L 1304.77 941.71
  L 1303.90 941.72
  L 1303.29 941.43
  L 1303.29 941.43
  L 1303.01 941.04
  L 1302.73 940.73
  L 1302.33 940.66
  L 1301.36 940.49
  L 1301.04 940.10
  L 1300.73 939.77
  L 1300.30 939.67
  L 1299.70 939.63
  L 1299.27 939.41
  L 1299.27 939.41
  L 1299.05 939.11
  L 1298.72 938.76
  L 1298.23 938.68
  L 1297.49 938.58
  L 1297.08 938.10
  L 1296.84 937.82
  L 1296.47 937.71
  L 1295.56 937.71
  L 1294.75 937.51
  L 1268.26 924.28
  L 1261.87 921.49
  L 1255.56 919.45
  L 1254.00 918.65
  L 1251.89 917.28
  L 1250.21 916.61
  L 1248.39 916.19
  L 1247.55 916.31
  L 1246.37 916.88
  L 1245.84 917.02
  L 1245.63 916.98
  L 1245.40 916.85
  L 1245.15 916.43
  L 1245.12 915.88
  L 1245.30 915.38
  L 1245.64 915.02
  L 1246.09 914.87
  L 1246.30 914.88
  L 1246.71 914.82
  L 1246.74 914.51
  L 1246.70 914.46
  L 1212.43 900.13
  L 1210.18 899.44
  L 1207.84 899.21
  L 1206.32 899.21
  L 1205.44 899.32
  L 1204.61 899.63
  L 1190.26 907.20
  L 1189.91 907.23
  L 1189.34 907.12
  L 1189.34 907.12
  L 1188.51 907.28
  L 1187.66 907.82
  L 1187.49 907.93
  L 1147.40 926.85
  L 1147.33 926.87
  L 1146.26 927.00
  L 1138.00 931.15
  L 1137.86 931.28
  L 1137.85 931.62
  L 1138.15 931.80
  L 1142.28 931.80
  L 1142.63 932.03
  L 1142.57 932.44
  L 1142.33 932.57
  L 1139.65 932.90
  L 1139.20 933.02
  L 1131.17 936.20
  L 1123.18 939.07
  L 1115.21 941.62
  L 1107.28 943.87
  L 1105.71 944.06
  L 1091.41 943.64
  L 1084.90 943.39
  L 1077.10 943.33
  L 1061.00 943.20
  L 1056.77 943.40
  L 1052.34 943.63
  L 1001.80 943.66
  L 1001.78 943.66
  L 1000.73 943.87
  L 999.59 944.53
  L 998.48 945.58
  L 997.17 947.19
  L 972.57 979.49
  L 951.09 1008.03
  L 951.01 1008.30
  L 951.13 1008.56
  L 951.13 1008.56
  L 951.16 1008.58
  L 952.02 1009.50
  L 952.05 1010.00
  L 951.71 1010.37
  L 951.68 1010.38
  L 948.94 1011.75
  L 946.59 1013.54
  L 945.04 1015.22
  L 943.73 1017.17
  L 943.72 1017.19
  L 943.63 1018.02
  L 944.16 1018.67
  L 955.37 1024.39
  L 966.33 1029.46
  L 974.11 1033.13
  L 982.05 1037.39
  L 986.20 1039.45
  L 991.62 1041.63
  L 996.48 1043.59
  L 1001.29 1045.83
  L 1006.04 1048.34
  L 1010.74 1051.14
  L 1012.60 1052.55
  L 1014.92 1054.19
  L 1016.81 1055.74
  L 1019.04 1057.82
  L 1020.99 1059.22
  L 1022.03 1060.03
  L 1052.07 1090.01
  L 1052.51 1090.31
  L 1053.03 1090.42
  L 1053.11 1090.41
  L 1053.67 1090.59
  L 1078.65 1115.60
  L 1079.85 1116.14
  L 1080.69 1116.62
  L 1082.93 1118.93
  L 1088.19 1124.31
  L 1091.98 1127.85
  L 1095.64 1130.82
  L 1099.36 1133.34
  L 1099.99 1133.72
  L 1103.75 1135.47
  L 1108.86 1137.07
  L 1110.61 1137.52
  L 1115.93 1138.97
  L 1119.70 1140.29
  L 1122.69 1141.72
  L 1124.93 1143.31
  L 1137.38 1154.28
  L 1153.16 1167.79
  L 1153.71 1168.66
  L 1153.66 1169.68
  L 1153.06 1171.04
  L 1152.30 1172.28
  L 1151.38 1173.39
  L 1145.88 1179.34
  L 1140.52 1185.46
  L 1135.30 1191.75
  L 1130.21 1198.20
  L 1129.59 1199.19
  L 1129.20 1200.28
  L 1129.04 1202.08
  L 1129.48 1203.97
  L 1130.41 1207.37
  L 1130.97 1212.29
  L 1131.38 1216.37
  L 1132.38 1225.12
  L 1132.66 1232.50
  L 1132.28 1243.23
  L 1131.28 1253.29
  L 1129.54 1263.05
  L 1127.07 1272.53
  L 1123.85 1281.70
  L 1123.85 1281.70
  L 1120.80 1288.71
  L 1117.30 1295.53
  L 1106.25 1314.88
  L 1093.81 1335.56
  L 1091.01 1340.51
  L 1087.58 1346.53
  L 1084.73 1350.65
  L 1074.43 1363.21
  L 1067.82 1371.16
  L 1060.93 1379.65
  L 1049.06 1394.17
  L 1039.85 1404.77
  L 1009.03 1438.47
  L 1008.53 1439.30
  L 1008.51 1439.59
  L 1008.34 1439.95
  L 1007.97 1440.09
  L 1005.82 1440.09
  L 1004.64 1439.93
  L 991.56 1436.25
  L 990.58 1436.17
  L 989.43 1436.43
  L 988.08 1437.00
  L 986.97 1437.17
  L 985.98 1436.65
  L 978.55 1429.42
  L 970.14 1421.87
  L 960.64 1413.89
  L 947.30 1403.15
  L 933.64 1392.17
  L 923.58 1383.74
  L 907.06 1369.92
  L 881.66 1348.70
  L 850.95 1322.29
  L 816.48 1292.55
  L 791.56 1271.55
  L 789.77 1269.86
  L 788.29 1268.46
  L 787.08 1267.70
  L 784.86 1266.16
  L 781.83 1263.10
  L 780.90 1262.12
  L 780.00 1261.69
  L 779.79 1261.66
  L 779.21 1261.38
  L 773.92 1256.12
  L 772.88 1255.75
  L 772.05 1255.26
  L 771.82 1255.00
  L 769.09 1252.17
  L 767.95 1251.30
  L 767.01 1250.80
  L 766.08 1250.21
  L 764.24 1248.30
  L 761.16 1245.23
  L 760.05 1244.37
  L 759.25 1243.96
  L 758.15 1243.28
  L 754.62 1239.83
  L 750.77 1236.47
  L 744.33 1230.83
  L 732.52 1220.10
  L 731.20 1218.91
  L 722.92 1210.96
  L 706.16 1194.33
  L 697.21 1184.98
  L 689.78 1176.30
  L 684.05 1168.93
  L 678.34 1161.19
  L 672.63 1153.04
  L 666.97 1144.55
  L 661.36 1135.72
  L 655.83 1126.60
  L 650.34 1117.13
  L 644.96 1107.42
  L 641.81 1101.34
  L 638.72 1094.83
  L 635.69 1087.90
  L 632.72 1080.53
  L 627.82 1067.65
  L 623.69 1056.20
  L 620.32 1046.17
  L 617.71 1037.57
  L 612.06 1016.22
  L 609.67 1006.06
  L 607.56 996.24
  L 606.07 986.91
  L 604.61 973.80
  L 603.94 963.31
  L 603.78 951.18
  L 603.81 918.33
  L 603.31 910.64
  L 602.90 905.62
  L 602.86 902.04
  L 603.25 900.14
  L 604.29 898.44
  L 605.98 897.00
  L 608.34 895.88
  L 611.11 895.18
  L 614.90 894.75
  L 618.59 894.69
  L 622.19 895.00
  L 625.69 895.69
  L 625.69 895.69
  L 630.14 897.15
  L 634.42 899.24
  L 638.18 901.28
  L 641.48 902.77
  L 644.55 903.81
  L 647.53 904.47
  L 651.31 904.80
  L 655.22 904.62
  L 667.99 903.42
  L 668.41 903.39
  L 674.92 902.80
  L 680.68 902.09
  L 685.63 901.27
  L 689.82 900.33
  L 693.05 899.31
  L 695.42 898.21
  L 696.89 897.03
  L 697.31 896.38
  L 697.50 895.70
  L 697.45 894.79
  L 697.14 893.97
  L 696.61 893.32
  L 695.91 892.92
  L 693.94 892.23
  L 692.45 891.75
  L 684.11 890.93
  L 678.98 890.80
  L 670.46 891.18
  L 661.96 891.24
  L 653.50 890.99
  L 645.06 890.42
  L 633.77 889.16
  L 622.53 887.33
  L 617.24 886.78
  L 608.08 886.39
  L 604.91 886.12
  L 603.85 885.83
  L 602.94 885.36
  L 601.68 884.12
  L 600.57 882.13
  L 599.08 877.96
  L 598.84 876.50
  L 598.84 861.84
  L 598.65 857.05
  L 598.33 853.94
  L 595.55 835.93
  L 593.21 820.60
  L 591.30 809.72
  L 588.35 795.62
  L 584.90 781.55
  L 580.96 767.64
  L 576.58 754.03
  L 571.74 740.65
  L 566.49 727.64
  L 560.78 714.87
  L 554.69 702.55
  L 551.19 696.17
  L 547.68 690.50
  L 527.26 659.39
  L 515.46 640.80
  L 515.10 639.90
  L 515.03 638.92
  L 515.26 637.95
  L 515.78 637.07
  L 515.93 636.72
  L 515.67 636.15
  L 515.49 635.68
  L 515.68 635.22
  L 518.38 632.53
  L 518.75 632.36
  L 519.36 632.40
  L 519.62 632.33
  L 521.55 630.40
  L 521.62 630.35
  L 521.86 630.35
  L 522.01 630.55
  Z"
/>
</svg>
